<svg width="14" height="14" viewBox="0 0 14 14" fill="none" xmlns="http://www.w3.org/2000/svg">
<path d="M6.99325 0.333336C3.31325 0.333336 0.333252 3.32 0.333252 7C0.333252 10.68 3.31325 13.6667 6.99325 13.6667C10.6799 13.6667 13.6666 10.68 13.6666 7C13.6666 3.32 10.6799 0.333336 6.99325 0.333336ZM6.99992 12.3333C4.05325 12.3333 1.66659 9.94667 1.66659 7C1.66659 4.05334 4.05325 1.66667 6.99992 1.66667C9.94658 1.66667 12.3333 4.05334 12.3333 7C12.3333 9.94667 9.94658 12.3333 6.99992 12.3333ZM7.33325 3.66667H6.33325V7.66667L9.83325 9.76667L10.3333 8.94667L7.33325 7.16667V3.66667Z" fill="black" fill-opacity="0.24"/>
</svg>
