<svg width="183" height="56" viewBox="0 0 183 56" fill="none" xmlns="http://www.w3.org/2000/svg">
<path d="M68 49H70.0314V41.1571H79.7771V39.3057H70.0314V32.8771H80.9343V31H68V49Z" fill="#EC4FF2"/>
<path d="M84.875 49H97.0379V47.1229H86.9064V31H84.875V49Z" fill="#EC4FF2"/>
<path d="M100.695 49H113.835V47.1486H102.727V40.8486H112.55V38.9971H102.727V32.8514H113.707V31H100.695V49Z" fill="#EC4FF2"/>
<path d="M130.213 31L124.71 38.4057L119.208 31H116.816L123.45 39.82L116.559 49H118.899L124.659 41.2343L130.419 49H132.836L125.945 39.82L132.579 31H130.213Z" fill="#EC4FF2"/>
<path d="M68 25H73.9745V21.1957L75.5064 19.3319L79.0043 25H86.1277L79.7702 14.8894L86 7.12766H79.0553L73.9745 13.817V7.12766H68V25Z" fill="white"/>
<path d="M86.6503 25H92.6247V19.8936H93.9013L97.2715 25H104.089L99.9269 18.9234C102.097 17.8766 103.45 16.0638 103.45 13.4596V13.4085C103.45 11.5702 102.889 10.2426 101.816 9.17021C100.565 7.91915 98.5481 7.12766 95.3822 7.12766H86.6503V25ZM92.6247 15.6298V12.1319H95.229C96.6077 12.1319 97.5013 12.6936 97.5013 13.8426V13.8936C97.5013 14.9915 96.6332 15.6298 95.2035 15.6298H92.6247Z" fill="white"/>
<path d="M102.951 25H109.334L110.253 22.6H116.509L117.453 25H123.938L116.407 7H110.483L102.951 25ZM111.76 18.3617L113.394 14.0213L115.028 18.3617H111.76Z" fill="white"/>
<path d="M124.674 25H130.648V21.1957L132.18 19.3319L135.678 25H142.802L136.444 14.8894L142.674 7.12766H135.729L130.648 13.817V7.12766H124.674V25Z" fill="white"/>
<path d="M143.324 25H158.694V20.0979H149.196V18.1574H157.928V13.8426H149.196V12.0298H158.567V7.12766H143.324V25Z" fill="white"/>
<path d="M160.304 25H166.227V16.7532L172.866 25H178.176V7.12766H172.253V15.017L165.895 7.12766H160.304V25Z" fill="white"/>
<path fill-rule="evenodd" clip-rule="evenodd" d="M50.5196 20.1645C52.7955 19.5219 54.5406 17.5373 54.8953 15.5286C55.4285 12.5082 54.9338 9.25854 52.1378 6.73775C50.2679 5.07758 46.8921 3.97734 43.9922 4.10452C41.9622 4.17434 39.2459 4.89735 37.3552 6.37372C34.4803 5.1557 31.3188 4.48206 28 4.48206C15.3854 4.48206 5.04385 14.2143 4.07428 26.5799C4.02507 27.1832 4 27.7931 4 28.4086L4.00003 28.4446L4 28.4821C4 41.7369 14.7452 52.4821 28 52.4821C41.2548 52.4821 52 41.7369 52 28.4821C52 25.5579 51.477 22.7559 50.5196 20.1645ZM47.6815 38.3233C45.8595 32.3323 42.6015 25.5575 42.6015 25.5575C42.5371 25.4474 41.3321 22.2844 41.3321 22.2844C39.5276 16.9073 39.3491 13.3189 40.7943 11.2869C40.8965 11.1627 41.0275 11.0211 41.1854 10.8695C43.9635 12.9526 46.2326 15.6777 47.7725 18.8246C46.7865 18.6708 45.7953 18.1849 45.1052 17.5479C45.1052 17.5479 43.4633 16.416 44.0613 17.5792C44.6966 18.8523 45.8316 19.7067 47.3936 20.1546C47.7497 20.2567 48.1027 20.3223 48.4502 20.355C49.4502 22.8692 50 25.6114 50 28.4821C50 32.0196 49.1651 35.3621 47.6815 38.3233ZM49.856 18.5525C50.8821 18.0871 51.473 17.3215 51.9127 16.4255C52.3874 15.3715 52.7486 13.8456 51.5364 11.7225C50.6523 10.1135 48.643 8.69909 46.5783 8.68087C45.1327 8.66812 43.8674 9.09998 42.8731 9.64491C45.8547 12.0023 48.2634 15.0525 49.856 18.5525ZM35.7939 7.90254C33.3713 6.98455 30.7443 6.48206 28 6.48206C27.2868 6.48206 26.5815 6.51599 25.8857 6.58234C30.3654 14.9106 33 25.098 33 36.0998C33 38.2106 32.903 40.2914 32.7146 42.3349C33.756 41.6227 34.6478 40.8815 35.0972 40.2987C35.8094 39.3789 36.1678 38.4899 36.5539 36.7824C37.1303 34.1707 36.839 31.9384 35.4817 27.6483C34.4818 24.5185 33.6426 20.7076 33.3265 17.84C33.1643 16.2397 33.2944 14.1019 33.7287 12.5874C34.0433 11.49 34.6352 9.42602 35.7939 7.90254Z" fill="#EC4FF2"/>
<path opacity="0.1" d="M30.5806 50.3323C30.8569 47.7707 31 45.1494 31 42.482C31 29.0694 27.3808 16.8205 21.4135 7.48499C12.4809 10.2842 6 18.6263 6 28.482C6 40.6323 15.8497 50.482 28 50.482C28.873 50.482 29.7341 50.4312 30.5806 50.3323Z" fill="black"/>
<path d="M13.3515 39.2413C13.917 40.7848 15.1343 42.0776 16.7998 42.6838C19.7969 43.7746 23.1109 42.2293 24.2017 39.2322C24.684 37.9072 24.651 36.5203 24.2052 35.2909L13.3515 39.2413Z" fill="white"/>
<path fill-rule="evenodd" clip-rule="evenodd" d="M15.3727 38.5057C15.8428 39.3708 16.6185 40.0743 17.6164 40.4376C19.7871 41.2276 22.1872 40.1084 22.9773 37.9378C23.2509 37.1859 23.2955 36.4066 23.1467 35.6762L15.3727 38.5057ZM21.515 38.9466C21.2893 39.5668 20.6035 39.8866 19.9833 39.6608C19.3631 39.4351 19.0434 38.7493 19.2691 38.1292C19.4948 37.509 20.1806 37.1892 20.8008 37.4149C21.421 37.6407 21.7407 38.3264 21.515 38.9466Z" fill="black"/>
<path d="M32.0494 47.4025C33.066 46.7968 34.1443 46.0625 35.2706 45.1382C39.7473 40.5627 39.9791 36.5377 39.2602 32.067C38.9051 29.8164 37.4914 25.333 36.71 23.9968C36.6456 23.8867 35.4407 20.7236 35.4407 20.7236C34.099 16.7256 33.8043 14.1542 33.7414 13.0982C33.6952 13.0753 33.6489 13.0525 33.6026 13.0298C33.2679 14.4935 33.1777 16.365 33.3233 17.8027C33.6395 20.6702 34.4787 24.4812 35.4786 27.611C36.8358 31.9011 37.1272 34.1334 36.5508 36.7451C36.1647 38.4526 35.8063 39.3416 35.0941 40.2613C34.5185 41.0079 33.6478 41.734 32.7107 42.3767C32.5527 44.0794 32.3312 45.7561 32.0494 47.4025Z" fill="#C00FC7"/>
<path d="M43.9594 17.0961C44.0731 17.2133 44.2066 17.3379 44.3624 17.4706C45.6957 18.6059 47.5 19.6733 49.5973 19.2867C51 19.0282 53 17.3987 53 14.4821C53 10.3959 49.819 7.48207 46.3255 7.48207C43.0132 7.48207 40.2956 9.83623 40.0226 13.0725C40.1815 12.3808 40.4388 11.7868 40.7942 11.2869C40.8965 11.1627 41.0275 11.0211 41.1854 10.8695C41.1854 10.8695 41.1854 10.7985 42 10.1921C42.5 9.81985 42.8731 9.64492 42.8731 9.64492C43.8674 9.09999 45.1327 8.66814 46.5783 8.68089C48.643 8.6991 50.6523 10.1136 51.5364 11.7225C52.7486 13.8456 52.3874 15.3716 51.9127 16.4255C51.4729 17.3215 50.8821 18.0871 49.856 18.5526C49.856 18.5526 49.6167 18.6773 48.8143 18.7821C48.0118 18.8868 47.7725 18.8246 47.7725 18.8246C46.7865 18.6708 45.7953 18.1849 45.1052 17.548C45.1052 17.548 44.1407 16.883 43.9594 17.0961Z" fill="#C00FC7"/>
<path d="M35.9449 37.8877C36.1038 37.9402 36.2598 38.0005 36.4124 38.0684C37.3534 38.5035 38.5252 39.4042 38.005 40.5235C37.6999 41.1894 36.8479 41.5538 36.1074 41.3841C35.356 41.2135 34.7662 40.575 34.6289 39.845C34.5147 39.2628 34.622 38.4571 35.0647 38.0205C35.308 37.7986 35.6346 37.802 35.9449 37.8877Z" fill="#9A0C9F"/>
<path d="M35.8721 40.3321C35.7138 40.091 35.6571 39.795 35.6322 39.5115C35.614 39.2914 35.6527 39.0337 35.8544 38.9445C35.9999 38.8824 36.1711 38.9261 36.3185 38.9999C36.8435 39.2891 37.0456 40.0232 36.7841 40.5248C36.6846 40.7154 36.5445 40.8614 36.3117 40.7606C36.1269 40.6594 35.9746 40.5109 35.8721 40.3321Z" fill="#180048"/>
<path d="M36.735 32.9543C36.8982 32.9912 37.0589 33.038 37.2161 33.0943C38.1959 33.4384 39.4513 34.2307 39.0476 35.4006C38.806 36.0921 38.0035 36.5333 37.2364 36.4346C36.4801 36.3365 35.8217 35.7452 35.6064 35.0406C35.4366 34.475 35.4573 33.6627 35.8594 33.1813C36.0832 32.9267 36.4126 32.8886 36.735 32.9543Z" fill="#9A0C9F"/>
<path d="M36.9022 35.3962C36.73 35.1593 36.6209 34.8863 36.5844 34.6012C36.5439 34.3897 36.5616 34.12 36.7539 34.0092C36.8901 33.9255 37.0728 33.9599 37.221 34.023C37.7712 34.2619 38.0511 34.9707 37.8417 35.5073C37.7635 35.6995 37.6331 35.867 37.3996 35.7767C37.1993 35.6986 37.0264 35.5663 36.9022 35.3962Z" fill="#180048"/>
<path d="M36.0226 28.4076C36.1725 28.4435 36.3188 28.4927 36.4596 28.5545C37.3519 28.9025 38.4893 29.6651 38.0924 30.7312C37.8543 31.3707 37.0883 31.752 36.3877 31.6374C35.6871 31.5228 35.1025 30.9681 34.9281 30.3083C34.7887 29.7764 34.827 29.028 35.2148 28.5978C35.4263 28.3633 35.7326 28.3443 36.0226 28.4076Z" fill="#9A0C9F"/>
<path d="M35.8717 30.523C35.7222 30.2963 35.6309 30.0393 35.6054 29.7736C35.5748 29.5733 35.5905 29.3347 35.7714 29.2336C35.896 29.1594 36.0672 29.2034 36.2046 29.2658C36.7114 29.5015 36.9399 30.1647 36.7339 30.6497C36.6564 30.8316 36.5274 30.9783 36.3156 30.8896C36.1349 30.824 35.9819 30.6667 35.8717 30.523Z" fill="#180048"/>
<path d="M35.3392 23.738C35.4764 23.793 35.6105 23.8552 35.7409 23.9243C36.5408 24.3488 37.5202 25.1935 37.0109 26.1466C36.7119 26.719 35.9421 26.9955 35.3006 26.8123C34.6591 26.629 34.1647 26.0293 34.0864 25.3973C34.0223 24.8814 34.1554 24.182 34.5709 23.827C34.7803 23.6232 35.0628 23.6339 35.3392 23.738Z" fill="#9A0C9F"/>
<path d="M34.9372 25.6989C34.8182 25.4721 34.7634 25.22 34.7785 24.9683C34.7799 24.7808 34.8165 24.5543 35.0067 24.4747C35.1407 24.4218 35.2895 24.4748 35.4044 24.5461C35.8535 24.8296 35.9851 25.475 35.7286 25.904C35.6311 26.0634 35.4924 26.1886 35.3037 26.0808C35.1448 26.0165 35.0251 25.8513 34.9372 25.6989Z" fill="#180048"/>
<path d="M34.5565 19.0827C34.6904 19.1577 34.8195 19.2404 34.9431 19.3304C35.7118 19.8986 36.592 20.9235 35.9006 21.8317C35.4946 22.3751 34.6444 22.5518 34.0097 22.2648C33.3643 21.977 32.9629 21.2901 32.9747 20.613C32.9884 20.0717 33.2422 19.3605 33.7308 19.0526C33.9922 18.8843 34.293 18.9484 34.5565 19.0827Z" fill="#9A0C9F"/>
<path d="M33.8264 21.0711C33.7339 20.8246 33.7408 20.5543 33.7801 20.2862C33.8147 20.0908 33.8952 19.8572 34.094 19.8095C34.2374 19.7783 34.3848 19.852 34.4984 19.9437C34.921 20.2982 34.9511 20.9984 34.6203 21.4009C34.4911 21.5476 34.3314 21.6607 34.1448 21.5219C33.993 21.4062 33.8817 21.2487 33.8264 21.0711Z" fill="#180048"/>
<path d="M34.6591 14.2358C34.7654 14.3439 34.8634 14.4592 34.9522 14.5809C35.5228 15.3426 36.0727 16.5827 35.1244 17.263C34.5534 17.6689 33.6865 17.6045 33.1504 17.1476C32.6142 16.6907 32.4263 15.9051 32.6541 15.2547C32.8297 14.7359 33.2945 14.124 33.8716 13.9584C34.1594 13.8859 34.4438 14.0322 34.6591 14.2358Z" fill="#9A0C9F"/>
<path d="M33.3648 16.0362C33.3602 15.7793 33.4216 15.5263 33.5437 15.2994C33.631 15.1288 33.7744 14.9311 33.98 14.9464C34.0518 14.9578 34.1201 14.9848 34.1796 15.0254C34.2392 15.0659 34.2884 15.1189 34.3235 15.1803C34.6094 15.6288 34.4475 16.2731 34.0044 16.5631C33.8454 16.6658 33.6567 16.7248 33.5269 16.5485C33.4161 16.4151 33.3749 16.214 33.3648 16.0362Z" fill="#180048"/>
<path d="M35.8059 10.2507C35.8714 10.3799 35.9281 10.513 35.9758 10.649C36.2686 11.4947 36.392 12.7652 35.3233 13.1236C34.6779 13.3363 33.9028 13.039 33.5481 12.4704C33.1935 11.9018 33.2541 11.1453 33.6586 10.6228C33.9804 10.1984 34.5853 9.77421 35.1615 9.78575C35.4547 9.79707 35.6699 10.0008 35.8059 10.2507Z" fill="#9A0C9F"/>
<path d="M34.0725 11.4358C34.1523 11.1925 34.2897 10.971 34.4741 10.7882C34.6136 10.6527 34.8079 10.5108 34.9993 10.5772C35.065 10.6073 35.1223 10.6523 35.166 10.7083C35.2098 10.7642 35.2387 10.8294 35.2503 10.8981C35.3916 11.3984 35.017 11.9647 34.5176 12.1152C34.3287 12.1741 34.1331 12.1699 34.0702 11.9673C34.0047 11.8057 34.0291 11.5991 34.0725 11.4358Z" fill="#180048"/>
<path d="M38.0197 7.5757C38.0066 7.70771 37.9834 7.83848 37.9502 7.96692C37.7452 8.7653 37.1973 9.80938 36.167 9.57642C35.5552 9.43707 35.0935 8.83955 35.1005 8.23508C35.1075 7.63061 35.5474 7.06878 36.139 6.85215C36.6079 6.67839 37.3078 6.63649 37.7583 6.90958C37.9772 7.06144 38.0475 7.31698 38.0197 7.5757Z" fill="#9A0C9F"/>
<path d="M36.0506 7.68053C36.2343 7.52325 36.4598 7.41733 36.7031 7.37407C36.8801 7.33499 37.11 7.32082 37.2212 7.45453C37.3018 7.55451 37.2922 7.69994 37.2515 7.82223C37.1015 8.28093 36.5175 8.54032 36.0456 8.42168C35.874 8.3776 35.7167 8.28242 35.7623 8.08741C35.8162 7.92795 35.9161 7.78693 36.0506 7.68053Z" fill="#180048"/>
<path d="M40.4696 5.26479C40.4479 5.36617 40.4158 5.46512 40.3739 5.56024C40.1378 6.16871 39.6069 6.95347 38.8074 6.68554C38.3277 6.52475 38.0238 6.01192 38.0883 5.52634C38.1278 5.28793 38.2382 5.06645 38.4064 4.88837C38.5746 4.71029 38.7934 4.58315 39.0367 4.52213C39.4244 4.42567 39.9895 4.44677 40.3099 4.71046C40.4861 4.84874 40.5049 5.05878 40.4696 5.26479Z" fill="#9A0C9F"/>
<path d="M38.8982 5.1686C39.0605 5.06268 39.2485 4.99766 39.445 4.97944C39.5881 4.95874 39.7726 4.97245 39.8519 5.09322C39.9119 5.1812 39.8825 5.29396 39.8436 5.38509C39.6793 5.72797 39.1997 5.89078 38.8267 5.75861C38.6884 5.70635 38.5738 5.62494 38.6382 5.47303C38.6927 5.34955 38.7828 5.24397 38.8982 5.1686Z" fill="#180048"/>
</svg>
