<svg width="24" height="32" viewBox="0 0 24 32" fill="none" xmlns="http://www.w3.org/2000/svg">
<path d="M11.2 0C5.008 0 0 5.008 0 11.2C0 19.6 11.2 32 11.2 32C11.2 32 22.4 19.6 22.4 11.2C22.4 5.008 17.392 0 11.2 0Z" fill="#180048"/>
<path d="M11 4.34668C7.32668 4.34668 4.34668 7.32668 4.34668 11C4.34668 14.6733 7.32668 17.6533 11 17.6533C14.6733 17.6533 17.6533 14.6733 17.6533 11C17.6533 7.32668 14.6733 4.34668 11 4.34668ZM10.6533 16.3333V12.16H8.33335L11.6667 5.66668V9.84001H13.9L10.6533 16.3333Z" fill="#34CD71"/>
</svg>
